<svg width="20" height="20" viewBox="0 0 20 20" fill="none" xmlns="http://www.w3.org/2000/svg">
<g clip-path="url(#clip0_235_15)">
<path d="M15.25 19.25C17.459 19.25 19.25 17.459 19.25 15.25V4.75C19.25 2.541 17.459 0.75 15.25 0.75H4.75C2.541 0.75 0.75 2.541 0.75 4.75V15.25C0.75 17.459 2.541 19.25 4.75 19.25H15.25Z" fill="#121212"/>
<path d="M1.7 2.1655C1.1085 2.863 0.75 3.764 0.75 4.75V15.25C0.75 17.459 2.541 19.25 4.75 19.25H15.25C17.459 19.25 19.25 17.459 19.25 15.25V4.75C19.25 4.4985 19.224 4.254 19.1795 4.0155C16.0675 2.11 12.416 1 8.5 1C6.1145 1 3.8285 1.416 1.7 2.1655Z" fill="#121212"/>
<path d="M0.7525 4.702C0.752 4.7185 0.75 4.734 0.75 4.75V15.25C0.75 17.459 2.541 19.25 4.75 19.25H15.25C17.459 19.25 19.25 17.459 19.25 15.25V6.4485C16.2195 4.28 12.5105 3 8.5 3C5.7325 3 3.11 3.613 0.7525 4.702Z" fill="#121212"/>
<path d="M0.75 6.94V15.25C0.75 17.459 2.541 19.25 4.75 19.25H15.25C17.459 19.25 19.25 17.459 19.25 15.25V8.9905C16.362 6.5065 12.6085 5 8.5 5C5.697 5 3.062 5.707 0.75 6.94Z" fill="#121212"/>
<path d="M8.5 7C5.6475 7 2.993 7.832 0.75 9.2545V15.25C0.75 17.459 2.541 19.25 4.75 19.25H15.25C17.459 19.25 19.25 17.459 19.25 15.25V11.7825C16.597 8.849 12.767 7 8.5 7Z" fill="#121212"/>
<path d="M8.5 9C5.5695 9 2.8815 10.0165 0.75 11.7055V15.25C0.75 17.459 2.541 19.25 4.75 19.25H15.25C17.459 19.25 19.25 17.459 19.25 15.25V15.131C17.0715 11.4625 13.076 9 8.5 9Z" fill="#121212"/>
<path d="M8.5 11C5.4275 11 2.67 12.3255 0.75 14.4295V15.25C0.75 17.459 2.541 19.25 4.75 19.25H15.25C16.4825 19.25 17.584 18.6915 18.318 17.815C16.824 13.837 12.9995 11 8.5 11Z" fill="#121212"/>
<path d="M15.25 19.25C15.7285 19.25 16.185 19.1615 16.6105 19.0075C15.5435 15.5325 12.3245 13 8.49998 13C5.40698 13 2.70398 14.6545 1.21698 17.124C1.88898 18.3885 3.21848 19.25 4.74998 19.25H15.25Z" fill="#121212"/>
<path d="M8.50002 15C5.93152 15 3.71352 16.492 2.65802 18.6545C3.26752 19.03 3.98202 19.25 4.75002 19.25H14.5915C13.675 16.771 11.2975 15 8.50002 15Z" fill="#121212"/>
<path d="M8.49955 17C6.84005 17 5.40305 17.9065 4.62305 19.2435C4.66555 19.245 4.70705 19.25 4.74955 19.25H12.3795C11.601 17.909 10.1615 17 8.49955 17Z" fill="#121212"/>
<path d="M15.5 1.1C17.3748 1.1 18.9 2.62523 18.9 4.5V15.5C18.9 17.3748 17.3748 18.9 15.5 18.9H4.5C2.62523 18.9 1.1 17.3748 1.1 15.5V4.5C1.1 2.62523 2.62523 1.1 4.5 1.1H15.5ZM15.5 0.4H4.5C2.23577 0.4 0.4 2.23577 0.4 4.5V15.5C0.4 17.7642 2.23577 19.6 4.5 19.6H15.5C17.7642 19.6 19.6 17.7642 19.6 15.5V4.5C19.6 2.23577 17.7642 0.4 15.5 0.4Z" fill="#121212" stroke="#121212" stroke-width="0.2"/>
<path d="M13.75 5.5C13.6515 5.5 13.554 5.5194 13.463 5.55709C13.372 5.59478 13.2893 5.65003 13.2197 5.71967C13.15 5.78931 13.0948 5.87199 13.0571 5.96299C13.0194 6.05398 13 6.15151 13 6.25C13 6.34849 13.0194 6.44602 13.0571 6.53701C13.0948 6.62801 13.15 6.71069 13.2197 6.78033C13.2893 6.84997 13.372 6.90522 13.463 6.94291C13.554 6.9806 13.6515 7 13.75 7C13.8485 7 13.946 6.9806 14.037 6.94291C14.128 6.90522 14.2107 6.84997 14.2803 6.78033C14.35 6.71069 14.4052 6.62801 14.4429 6.53701C14.4806 6.44602 14.5 6.34849 14.5 6.25C14.5 6.15151 14.4806 6.05398 14.4429 5.96299C14.4052 5.87199 14.35 5.78931 14.2803 5.71967C14.2107 5.65003 14.128 5.59478 14.037 5.55709C13.946 5.5194 13.8485 5.5 13.75 5.5Z" fill="white"/>
<path d="M10 7C9.20435 7 8.44129 7.31607 7.87868 7.87868C7.31607 8.44129 7 9.20435 7 10C7 10.7956 7.31607 11.5587 7.87868 12.1213C8.44129 12.6839 9.20435 13 10 13C10.7956 13 11.5587 12.6839 12.1213 12.1213C12.6839 11.5587 13 10.7956 13 10C13 9.20435 12.6839 8.44129 12.1213 7.87868C11.5587 7.31607 10.7956 7 10 7Z" stroke="white" stroke-width="0.8" stroke-miterlimit="10"/>
<path d="M16.5 7.25C16.5 5.179 14.821 3.5 12.75 3.5C11.662 3.5 8.338 3.5 7.25 3.5C5.179 3.5 3.5 5.179 3.5 7.25C3.5 8.338 3.5 11.662 3.5 12.75C3.5 14.821 5.179 16.5 7.25 16.5C8.338 16.5 11.662 16.5 12.75 16.5C14.821 16.5 16.5 14.821 16.5 12.75C16.5 11.662 16.5 8.338 16.5 7.25Z" stroke="white" stroke-width="0.8" stroke-miterlimit="10"/>
</g>
<defs>
<clipPath id="clip0_235_15">
<rect width="20" height="20" fill="white"/>
</clipPath>
</defs>
</svg>
