<svg width="20" height="18" viewBox="0 0 20 18" fill="none" xmlns="http://www.w3.org/2000/svg">
<path d="M3.19999 0.203857C1.81199 0.203857 0.803894 1.03564 0.803894 2.17964C0.803894 3.32764 1.83599 4.19604 3.19999 4.19604C4.58799 4.19604 5.59608 3.3482 5.59608 2.1562C5.53208 1.0082 4.54399 0.203857 3.19999 0.203857ZM1.19999 4.99995C0.979988 4.99995 0.799988 5.17995 0.799988 5.39995V17C0.799988 17.22 0.979988 17.4 1.19999 17.4H5.19999C5.41999 17.4 5.59999 17.22 5.59999 17V5.39995C5.59999 5.17995 5.41999 4.99995 5.19999 4.99995H1.19999ZM7.19999 4.99995C6.97999 4.99995 6.79999 5.17995 6.79999 5.39995V17C6.79999 17.22 6.97999 17.4 7.19999 17.4H10.8C11.0208 17.4 11.2 17.2208 11.2 17V11V10.9V10.8C11.2 9.85195 11.9282 9.07976 12.8562 9.00776C12.9042 8.99976 12.952 8.99995 13 8.99995C13.048 8.99995 13.0957 8.99976 13.1437 9.00776C14.0717 9.07976 14.8 9.85195 14.8 10.8V17C14.8 17.2208 14.9792 17.4 15.2 17.4H18.8C19.02 17.4 19.2 17.22 19.2 17V10.2C19.2 7.61195 17.8116 4.99995 14.7156 4.99995C13.3076 4.99995 12.244 5.54404 11.6 5.99605V5.39995C11.6 5.17995 11.42 4.99995 11.2 4.99995H7.19999Z" fill="#121212"/>
</svg>
