<svg width="53" height="59" viewBox="0 0 53 59" fill="none" xmlns="http://www.w3.org/2000/svg">
<g clip-path="url(#clip0_165_81)">
<path fill-rule="evenodd" clip-rule="evenodd" d="M1.56525 24.4C2.57477 24.1 5.40144 23.1 6.56239 22.55C13.9319 18.75 19.1814 10.9 20.6957 1.65C20.7967 0.85 21.5033 0.25 22.3614 0.25C23.1691 0.25 23.8757 0.85 23.9767 1.65C25.491 10.9 30.791 18.75 38.11 22.55C39.271 23.1 42.1481 24.1 43.1576 24.4C43.8138 24.65 44.3186 25.25 44.3186 26C44.3186 26.7 43.8138 27.35 43.1576 27.55C42.1481 27.9 39.271 28.85 38.11 29.45C30.791 33.25 25.491 41.05 23.9767 50.35C23.8757 51.15 23.1691 51.75 22.3614 51.75C21.5033 51.75 20.7967 51.15 20.6957 50.35C19.1814 41.05 13.9319 33.25 6.56239 29.45C5.40144 28.85 2.57477 27.9 1.56525 27.55C0.858583 27.35 0.404297 26.7 0.404297 26C0.404297 25.25 0.858583 24.65 1.56525 24.4ZM8.07668 26.5C14.5881 29.85 19.6357 35.95 22.3614 43.4C25.0367 35.95 30.0843 29.85 36.5957 26.5C36.8986 26.35 37.3024 26.15 37.7062 26C37.3024 25.8 36.8986 25.65 36.5957 25.45C30.0843 22.1 25.0367 16 22.3614 8.55C19.6357 16 14.5881 22.1 8.07668 25.45C7.77382 25.65 7.42049 25.8 6.9662 26C7.42049 26.15 7.77382 26.35 8.07668 26.5Z" fill="#121212"/>
<path d="M48.9111 52.4C50.3749 54.1 50.7787 55.05 50.3244 55.5C50.1898 55.6 50.0384 55.65 49.8701 55.65C48.8101 55.65 46.7406 53.85 45.0244 52.15L40.9358 48.15C40.9358 48.1 39.9263 47.1 38.9673 46C37.5539 44.3 37.1501 43.35 37.6044 42.9C38.0587 42.45 39.0178 42.85 40.7339 44.25C41.8444 45.2 42.8539 46.2 42.9044 46.2L46.9425 50.25C46.993 50.25 48.0025 51.3 48.9111 52.4Z" fill="#121212"/>
<path d="M40.8857 55.75C42.2991 57.45 42.7029 58.4 42.2486 58.85C42.114 58.9833 41.9625 59.05 41.7943 59.05C41.2391 59.05 40.381 58.55 39.1191 57.5C38.0086 56.55 36.999 55.55 36.9486 55.55L32.9105 51.5C32.86 51.5 31.8505 50.45 30.9419 49.35C29.4781 47.65 29.0743 46.7 29.5286 46.25C29.9829 45.8 30.9419 46.2 32.6581 47.65C33.7686 48.55 34.8286 49.55 34.8286 49.6L38.9171 53.6C38.9171 53.65 39.9267 54.65 40.8857 55.75Z" fill="#121212"/>
<path d="M52.4448 46.25C52.3438 46.35 52.1924 46.4 51.9905 46.4C50.9305 46.4 48.861 44.6 47.1448 42.95L43.1067 38.9C41.0876 36.95 38.9171 34.45 39.7248 33.65C40.5324 32.85 43.0562 35 45.0248 37L49.1133 41C51.0819 42.95 53.2524 45.45 52.4448 46.25Z" fill="#121212"/>
<path d="M42.7025 5.84999C43.6616 6.84999 41.1882 9.24999 41.1882 9.24999L38.7654 11.7C38.7654 11.7 36.292 14.1 35.333 13.15C34.3739 12.2 36.7968 9.74999 36.7968 9.74999L39.2701 7.34999C39.2701 7.34999 41.693 4.89999 42.7025 5.84999Z" fill="#121212"/>
<path d="M9.64129 37.5C10.6508 38.45 8.17748 40.9 8.17748 40.9L5.75462 43.3C5.75462 43.3 3.28129 45.75 2.32224 44.75C1.3632 43.8 3.78605 41.35 3.78605 41.35L6.25939 38.95C6.25939 38.95 8.68224 36.5 9.64129 37.5Z" fill="#121212"/>
<path d="M5.75462 7.34999L8.17748 9.74999C8.17748 9.74999 10.6508 12.2 9.64129 13.15C8.68224 14.1 6.25939 11.7 6.25939 11.7L3.78605 9.24999C3.78605 9.24999 1.3632 6.84999 2.32224 5.84999C3.28129 4.89999 5.75462 7.34999 5.75462 7.34999Z" fill="#121212"/>
</g>
<defs>
<clipPath id="clip0_165_81">
<rect width="53" height="59" fill="white"/>
</clipPath>
</defs>
</svg>
