<svg width="33" height="37" viewBox="0 0 33 37" fill="none" xmlns="http://www.w3.org/2000/svg">
<g clip-path="url(#clip0_165_63)">
<path d="M13.6981 4.7034L18.3679 11.9153L25.3073 16.2229L13.6981 26.6525L3.73582 16.7522L13.6981 4.7034Z" fill="white"/>
<path fill-rule="evenodd" clip-rule="evenodd" d="M0.973834 15.3017C1.60241 15.1135 3.36241 14.4864 4.08526 14.1415C8.67383 11.7584 11.9424 6.83555 12.8853 1.0347C12.9481 0.533009 13.3881 0.156738 13.9224 0.156738C14.4253 0.156738 14.8653 0.533009 14.9281 1.0347C15.871 6.83555 19.171 11.7584 23.7281 14.1415C24.451 14.4864 26.2424 15.1135 26.871 15.3017C27.2795 15.4584 27.5938 15.8347 27.5938 16.305C27.5938 16.744 27.2795 17.1517 26.871 17.2771C26.2424 17.4966 24.451 18.0923 23.7281 18.4686C19.171 20.8517 15.871 25.7432 14.9281 31.5754C14.8653 32.0771 14.4253 32.4533 13.9224 32.4533C13.3881 32.4533 12.9481 32.0771 12.8853 31.5754C11.9424 25.7432 8.67383 20.8517 4.08526 18.4686C3.36241 18.0923 1.60241 17.4966 0.973834 17.2771C0.533834 17.1517 0.250977 16.744 0.250977 16.305C0.250977 15.8347 0.533834 15.4584 0.973834 15.3017V15.3017ZM5.02812 16.6186C9.08241 18.7195 12.2253 22.5449 13.9224 27.2169C15.5881 22.5449 18.731 18.7195 22.7853 16.6186C22.9738 16.5245 23.2253 16.3991 23.4767 16.305C23.2253 16.1796 22.9738 16.0856 22.7853 15.9601C18.731 13.8593 15.5881 10.0339 13.9224 5.36182C12.2253 10.0339 9.08241 13.8593 5.02812 15.9601C4.83955 16.0856 4.61955 16.1796 4.33669 16.305C4.61955 16.3991 4.83955 16.5245 5.02812 16.6186V16.6186Z" fill="#121212"/>
<path d="M30.4543 32.861C31.3657 33.9271 31.6171 34.5229 31.3343 34.8051C31.2505 34.8678 31.1562 34.8992 31.0514 34.8992C30.3914 34.8992 29.1028 33.7703 28.0343 32.7042L25.4886 30.1958C25.4886 30.1644 24.86 29.5373 24.2628 28.8475C23.3828 27.7814 23.1314 27.1856 23.4143 26.9034C23.6971 26.6212 24.2943 26.872 25.3628 27.75C26.0543 28.3458 26.6828 28.9729 26.7143 28.9729L29.2286 31.5127C29.26 31.5127 29.8886 32.1712 30.4543 32.861Z" fill="#121212"/>
<path d="M25.4571 34.9619C26.3371 36.028 26.5886 36.6237 26.3057 36.9059C26.2219 36.9895 26.1276 37.0314 26.0229 37.0314C25.6771 37.0314 25.1429 36.7178 24.3571 36.0593C23.6657 35.4636 23.0371 34.8364 23.0057 34.8364L20.4914 32.2966C20.46 32.2966 19.8314 31.6381 19.2657 30.9483C18.3543 29.8822 18.1029 29.2864 18.3857 29.0042C18.6686 28.722 19.2657 28.9729 20.3343 29.8822C21.0257 30.4466 21.6857 31.0737 21.6857 31.1051L24.2314 33.6136C24.2314 33.6449 24.86 34.272 25.4571 34.9619V34.9619Z" fill="#121212"/>
<path d="M32.6547 29.0043C32.5918 29.067 32.4976 29.0984 32.3718 29.0984C31.7118 29.0984 30.4233 27.9696 29.3547 26.9348L26.8404 24.395C25.5833 23.1721 24.2318 21.6043 24.7347 21.1026C25.2376 20.6009 26.809 21.9492 28.0347 23.2035L30.5804 25.7119C31.8061 26.9348 33.1576 28.5026 32.6547 29.0043V29.0043Z" fill="#121212"/>
<path d="M26.5886 3.66864C27.1857 4.29576 25.6457 5.80084 25.6457 5.80084L24.1371 7.33728C24.1371 7.33728 22.5971 8.84237 22 8.2466C21.4029 7.65084 22.9114 6.1144 22.9114 6.1144L24.4514 4.60932C24.4514 4.60932 25.96 3.07288 26.5886 3.66864V3.66864Z" fill="#121212"/>
<path d="M6.00286 23.5169C6.63143 24.1127 5.09143 25.6491 5.09143 25.6491L3.58286 27.1542C3.58286 27.1542 2.04286 28.6907 1.44572 28.0636C0.848572 27.4678 2.35714 25.9314 2.35714 25.9314L3.89714 24.4263C3.89714 24.4263 5.40572 22.8898 6.00286 23.5169Z" fill="#121212"/>
<path d="M3.58286 4.60932L5.09143 6.1144C5.09143 6.1144 6.63143 7.65084 6.00286 8.2466C5.40572 8.84237 3.89714 7.33728 3.89714 7.33728L2.35714 5.80084C2.35714 5.80084 0.848572 4.29576 1.44572 3.66864C2.04286 3.07288 3.58286 4.60932 3.58286 4.60932V4.60932Z" fill="#121212"/>
</g>
<defs>
<clipPath id="clip0_165_63">
<rect width="33" height="37" fill="white"/>
</clipPath>
</defs>
</svg>
