<svg width="73" height="73" viewBox="0 0 73 73" fill="none" xmlns="http://www.w3.org/2000/svg">
<circle cx="35.5" cy="36.5" r="21.5" fill="black"/>
<mask id="path-2-inside-1_165_196" fill="white">
<path d="M52.0384 18.4646C53.5649 16.7136 53.3962 14.0255 51.4366 12.7783C47.2041 10.0845 42.3014 8.56286 37.2352 8.41194C30.7597 8.21904 24.4176 10.2774 19.2896 14.2363C14.1616 18.1952 10.5649 23.8097 9.11244 30.1232C7.65994 36.4366 8.44147 43.0584 11.3239 48.8602C14.2063 54.662 19.0112 59.2849 24.92 61.9412C30.8288 64.5975 37.4758 65.1228 43.7285 63.4277C49.9811 61.7325 55.4526 57.9218 59.2106 52.6448C62.1507 48.5162 63.8997 43.6901 64.3097 38.6898C64.4995 36.3746 62.4592 34.6164 60.1417 34.7752C57.8242 34.9339 56.1207 36.9594 55.782 39.2574C55.3329 42.3048 54.1683 45.2239 52.3585 47.7651C49.7295 51.4569 45.9017 54.1229 41.5274 55.3088C37.153 56.4947 32.5029 56.1272 28.3691 54.2688C24.2354 52.4105 20.8739 49.1764 18.8574 45.1175C16.8409 41.0586 16.2941 36.426 17.3103 32.0092C18.3264 27.5924 20.8427 23.6645 24.4302 20.8949C28.0177 18.1253 32.4545 16.6853 36.9847 16.8202C40.1031 16.9131 43.1329 17.7483 45.8328 19.2313C47.8688 20.3496 50.5119 20.2156 52.0384 18.4646Z"/>
</mask>
<path d="M52.0384 18.4646C53.5649 16.7136 53.3962 14.0255 51.4366 12.7783C47.2041 10.0845 42.3014 8.56286 37.2352 8.41194C30.7597 8.21904 24.4176 10.2774 19.2896 14.2363C14.1616 18.1952 10.5649 23.8097 9.11244 30.1232C7.65994 36.4366 8.44147 43.0584 11.3239 48.8602C14.2063 54.662 19.0112 59.2849 24.92 61.9412C30.8288 64.5975 37.4758 65.1228 43.7285 63.4277C49.9811 61.7325 55.4526 57.9218 59.2106 52.6448C62.1507 48.5162 63.8997 43.6901 64.3097 38.6898C64.4995 36.3746 62.4592 34.6164 60.1417 34.7752C57.8242 34.9339 56.1207 36.9594 55.782 39.2574C55.3329 42.3048 54.1683 45.2239 52.3585 47.7651C49.7295 51.4569 45.9017 54.1229 41.5274 55.3088C37.153 56.4947 32.5029 56.1272 28.3691 54.2688C24.2354 52.4105 20.8739 49.1764 18.8574 45.1175C16.8409 41.0586 16.2941 36.426 17.3103 32.0092C18.3264 27.5924 20.8427 23.6645 24.4302 20.8949C28.0177 18.1253 32.4545 16.6853 36.9847 16.8202C40.1031 16.9131 43.1329 17.7483 45.8328 19.2313C47.8688 20.3496 50.5119 20.2156 52.0384 18.4646Z" fill="#FAE56C" stroke="#121212" stroke-width="2" mask="url(#path-2-inside-1_165_196)"/>
<path d="M37.7742 29.4179C37.7742 30.2362 36.3795 30.7528 35.6655 30.3529C34.7487 29.8396 33.6995 29.5829 32.5178 29.5829C31.1121 29.5829 29.8387 29.9572 28.6978 30.7059C27.5569 31.4545 26.6604 32.5241 26.0085 33.9144C25.3362 35.3048 25 36.9198 25 38.7594C25 40.5989 25.3362 42.2246 26.0085 43.6364C26.6604 45.0267 27.5569 46.107 28.6978 46.877C29.8387 47.6257 31.1121 48 32.5178 48C33.7199 48 34.7691 47.754 35.6655 47.262C35.9618 47.0924 36.2369 46.9052 36.4909 46.7005C36.9229 46.3523 37.7742 46.6393 37.7742 47.1941C37.7742 47.4974 38.0201 47.7433 38.3234 47.7433H40.3871C41.8302 47.7433 43 46.5735 43 45.1304V26.6129C43 25.1698 41.8302 24 40.3871 24H39.5622C38.5747 24 37.7742 24.8005 37.7742 25.788V29.4179ZM30.3175 38.7594C30.3175 37.3904 30.6842 36.3209 31.4177 35.5508C32.1307 34.7594 33.017 34.3636 34.0764 34.3636C35.1154 34.3636 36.0017 34.7594 36.7351 35.5508C37.4482 36.3422 37.8048 37.4225 37.8048 38.7914C37.8048 40.1604 37.4482 41.2406 36.7351 42.0321C36.0017 42.8235 35.1154 43.2193 34.0764 43.2193C33.0374 43.2193 32.1511 42.8235 31.4177 42.0321C30.6842 41.2193 30.3175 40.1283 30.3175 38.7594Z" fill="white"/>
</svg>
